<svg xmlns="http://www.w3.org/2000/svg" viewBox="0 0 576 512">
  <path fill="currentColor" d="M420.6 149.6l45.2-78.4c1.6-2.8.6-6.3-2.2-7.9-2.8-1.6-6.3-.6-7.9 2.2l-45.6 79.1c-36.5-16.6-78.1-25.9-122.1-25.9s-85.6 9.3-122.1 25.9L120.3 65.5c-1.6-2.8-5.1-3.8-7.9-2.2-2.8 1.6-3.8 5.1-2.2 7.9l45.2 78.4C69.1 198.6 0 295.9 0 409.6c0 55.2 44.8 102.4 100 102.4h376c55.2 0 100-47.2 100-102.4 0-113.7-69.1-211-155.4-260zM176 368c-17.7 0-32-14.3-32-32s14.3-32 32-32 32 14.3 32 32-14.3 32-32 32zm224 0c-17.7 0-32-14.3-32-32s14.3-32 32-32 32 14.3 32 32-14.3 32-32 32z"/>
</svg>
