<svg xmlns="http://www.w3.org/2000/svg" viewBox="0 0 384 512">
  <path fill="currentColor" d="M318.7 268.6c-.3-37.2 16.6-65.4 51.7-86.7-19.7-28.3-49.4-43.9-88.6-46.9-37.2-3-77.8 21.7-92.8 21.7-15.4 0-51.4-20.9-79.6-20.3C52.5 137.3 0 180.4 0 268.1c0 26.2 4.8 53.3 14.4 81.2 12.8 37.2 58.9 128.5 107 126.9 26.2-.6 44.7-18.6 78.7-18.6 33 0 50.6 18.6 79.3 18.1 48.6-.8 90.4-83.4 102.6-120.7-71.2-33.6-63.3-101.5-63.3-103.4zM259.4 50.5C287.6 16.9 285.1 0 284.3 0c-18.7 1.1-40.3 12.6-52.6 27.1-13.5 15.6-21.5 35.1-19.7 55.9 20.4 1.6 39.2-8.2 51.4-31.5z"/>
</svg>
